# xmcd
#
# Track frame offsets:
#	150
#	17110
#	32362
#	45522
#	60572
#	72467
#	84100
#	103767
#	121230
#	136850
#	150685
#
# Disc length: 2206 seconds
#
# Revision: 0
# Processed by: cddbd v1.5.2PL0 Copyright (c) Steve Scherf et al.
# Submitted via: audiograbber 1.83.01
#
DISCID=82089c0b
DTITLE=Various Artist - Today's Greatest Country
DYEAR=1900
DGENRE=
TTITLE0=Vince Gill - Don't Let Our Love Start Slippin' Away
TTITLE1=Patty Loveless - Jelous Bone
TTITLE2=Sawyer Brown - The Dirt Road
TTITLE3=Billy Dean - Somewhere In My Broken Heart
TTITLE4=John Michael Montgomery - Line On Love
TTITLE5=Chris LeDoux with Garth Brooks - Watcha Gona Do With A Cowboy
TTITLE6=Brooks and Dunn - Neon Moon
TTITLE7=Tanya tucker - Some Kind Of Trouble
TTITLE8=Billy Ray Cyrus - She's Not Cryin' Anymore
TTITLE9=Hal Ketchum - Five O'Clock World
TTITLE10=McBride and The Ride - Sacred Ground
EXTD=
EXTT0=Vince Gill\n
EXTT1=Patty Loveless\n
EXTT2=Sawyer Brown\n
EXTT3=Billy Dean\n
EXTT4=John Michael Montgomery\n
EXTT5=Chris LeDoux and Garth Brooks\n
EXTT6=Brooks and Dunn\n
EXTT7=Tanya Tucker\n
EXTT8=Billy Ray Cyrus\n
EXTT9=Hal Ketchum\n
EXTT10=McBride and The Ride\n
PLAYORDER=
